<svg xmlns="http://www.w3.org/2000/svg" xmlns:xlink="http://www.w3.org/1999/xlink" contentStyleType="text/css" data-diagram-type="CLASS" height="1195px" preserveAspectRatio="none" style="width:1333px;height:1195px;background:#FFFFFF;" version="1.1" viewBox="0 0 1333 1195" width="1333px" zoomAndPan="magnify"><defs/><g><!--cluster poo--><g class="cluster" data-entity="poo" data-source-line="4" data-uid="ent0004" id="cluster_poo"><path d="M8.5,6 L38.7578,6 A3.75,3.75 0 0 1 41.2578,8.5 L48.2578,28.2969 L1323.5,28.2969 A2.5,2.5 0 0 1 1326,30.7969 L1326,1074.63 A2.5,2.5 0 0 1 1323.5,1077.13 L8.5,1077.13 A2.5,2.5 0 0 1 6,1074.63 L6,8.5 A2.5,2.5 0 0 1 8.5,6" fill="none" style="stroke:#000000;stroke-width:1.5;"/><line style="stroke:#000000;stroke-width:1.5;" x1="6" x2="48.2578" y1="28.2969" y2="28.2969"/><text fill="#000000" font-family="sans-serif" font-size="14" font-weight="bold" lengthAdjust="spacing" textLength="29.2578" x="10" y="20.9951">poo</text></g><!--cluster controller--><g class="cluster" data-entity="controller" data-source-line="3" data-uid="ent0002" id="cluster_controller"><path d="M32.5,49 L110.5957,49 A3.75,3.75 0 0 1 113.0957,51.5 L120.0957,71.2969 L449.5,71.2969 A2.5,2.5 0 0 1 452,73.7969 L452,503.36 A2.5,2.5 0 0 1 449.5,505.86 L32.5,505.86 A2.5,2.5 0 0 1 30,503.36 L30,51.5 A2.5,2.5 0 0 1 32.5,49" fill="none" style="stroke:#000000;stroke-width:1.5;"/><line style="stroke:#000000;stroke-width:1.5;" x1="30" x2="120.0957" y1="71.2969" y2="71.2969"/><text fill="#000000" font-family="sans-serif" font-size="14" font-weight="bold" lengthAdjust="spacing" textLength="77.0957" x="34" y="63.9951">controller</text></g><!--cluster service--><g class="cluster" data-entity="service" data-source-line="24" data-uid="ent0006" id="cluster_service"><path d="M478.5,325.38 L535.9512,325.38 A3.75,3.75 0 0 1 538.4512,327.88 L545.4512,347.6769 L1025.5,347.6769 A2.5,2.5 0 0 1 1028,350.1769 L1028,646.96 A2.5,2.5 0 0 1 1025.5,649.46 L478.5,649.46 A2.5,2.5 0 0 1 476,646.96 L476,327.88 A2.5,2.5 0 0 1 478.5,325.38" fill="none" style="stroke:#000000;stroke-width:1.5;"/><line style="stroke:#000000;stroke-width:1.5;" x1="476" x2="545.4512" y1="347.6769" y2="347.6769"/><text fill="#000000" font-family="sans-serif" font-size="14" font-weight="bold" lengthAdjust="spacing" textLength="56.4512" x="480" y="340.3751">service</text></g><!--cluster dao--><g class="cluster" data-entity="dao" data-source-line="39" data-uid="ent0010" id="cluster_dao"><path d="M598.5,698.46 L628.5869,698.46 A3.75,3.75 0 0 1 631.0869,700.96 L638.0869,720.7569 L905.5,720.7569 A2.5,2.5 0 0 1 908,723.2569 L908,1050.63 A2.5,2.5 0 0 1 905.5,1053.13 L598.5,1053.13 A2.5,2.5 0 0 1 596,1050.63 L596,700.96 A2.5,2.5 0 0 1 598.5,698.46" fill="none" style="stroke:#000000;stroke-width:1.5;"/><line style="stroke:#000000;stroke-width:1.5;" x1="596" x2="638.0869" y1="720.7569" y2="720.7569"/><text fill="#000000" font-family="sans-serif" font-size="14" font-weight="bold" lengthAdjust="spacing" textLength="29.0869" x="600" y="713.4551">dao</text></g><!--cluster model--><g class="cluster" data-entity="model" data-source-line="56" data-uid="ent0014" id="cluster_model"><path d="M1054.5,49 L1104.0215,49 A3.75,3.75 0 0 1 1106.5215,51.5 L1113.5215,71.2969 L1299.5,71.2969 A2.5,2.5 0 0 1 1302,73.7969 L1302,503.36 A2.5,2.5 0 0 1 1299.5,505.86 L1054.5,505.86 A2.5,2.5 0 0 1 1052,503.36 L1052,51.5 A2.5,2.5 0 0 1 1054.5,49" fill="none" style="stroke:#000000;stroke-width:1.5;"/><line style="stroke:#000000;stroke-width:1.5;" x1="1052" x2="1113.5215" y1="71.2969" y2="71.2969"/><text fill="#000000" font-family="sans-serif" font-size="14" font-weight="bold" lengthAdjust="spacing" textLength="48.5215" x="1056" y="63.9951">model</text></g><!--class AlunoController--><g class="entity" data-entity="AlunoController" data-source-line="4" data-uid="ent0003" id="entity_AlunoController"><rect fill="#F1F1F1" height="178.375" rx="2.5" ry="2.5" style="stroke:#181818;stroke-width:0.5;" width="389.9316" x="46.03" y="84"/><ellipse cx="182.2702" cy="100" fill="#ADD1B2" rx="11" ry="11" style="stroke:#181818;stroke-width:1;"/><path d="M185.239,105.6406 Q184.6609,105.9375 184.0202,106.0781 Q183.3796,106.2344 182.6765,106.2344 Q180.1765,106.2344 178.8484,104.5938 Q177.5359,102.9375 177.5359,99.8125 Q177.5359,96.6875 178.8484,95.0313 Q180.1765,93.375 182.6765,93.375 Q183.3796,93.375 184.0202,93.5313 Q184.6765,93.6875 185.239,93.9844 L185.239,96.7031 Q184.614,96.125 184.0202,95.8594 Q183.4265,95.5781 182.8015,95.5781 Q181.4577,95.5781 180.7702,96.6563 Q180.0827,97.7188 180.0827,99.8125 Q180.0827,101.9063 180.7702,102.9844 Q181.4577,104.0469 182.8015,104.0469 Q183.4265,104.0469 184.0202,103.7813 Q184.614,103.5 185.239,102.9219 L185.239,105.6406 Z " fill="#000000"/><text fill="#000000" font-family="sans-serif" font-size="14" lengthAdjust="spacing" textLength="108.9512" x="202.7702" y="104.8467">AlunoController</text><line style="stroke:#181818;stroke-width:0.5;" x1="47.03" x2="434.9616" y1="116" y2="116"/><text fill="#000000" font-family="sans-serif" font-size="14" lengthAdjust="spacing" textLength="155.8867" x="52.03" y="132.9951">-service: AlunoService</text><line style="stroke:#181818;stroke-width:0.5;" x1="47.03" x2="434.9616" y1="140.2969" y2="140.2969"/><text fill="#000000" font-family="sans-serif" font-size="14" lengthAdjust="spacing" textLength="377.9316" x="52.03" y="157.292">+create(dto: AlunoRequest): ResponseEntity&lt;Aluno&gt;</text><text fill="#000000" font-family="sans-serif" font-size="14" lengthAdjust="spacing" textLength="140.0957" x="52.03" y="173.5889">+list(): List&lt;Aluno&gt;</text><text fill="#000000" font-family="sans-serif" font-size="14" lengthAdjust="spacing" textLength="150.6572" x="52.03" y="189.8857">+get(id: Long): Aluno</text><text fill="#000000" font-family="sans-serif" font-size="14" lengthAdjust="spacing" textLength="315.2803" x="52.03" y="206.1826">+update(id: Long, dto: AlunoRequest): Aluno</text><text fill="#000000" font-family="sans-serif" font-size="14" lengthAdjust="spacing" textLength="295.1143" x="52.03" y="222.4795">+delete(id: Long): ResponseEntity&lt;Void&gt;</text><text fill="#000000" font-family="sans-serif" font-size="14" lengthAdjust="spacing" textLength="248.1377" x="52.03" y="238.7764">-toAluno(dto: AlunoRequest): Aluno</text><text fill="#000000" font-family="sans-serif" font-size="14" lengthAdjust="spacing" textLength="264.4756" x="52.03" y="255.0732">-normalizeEmail(email: String): String</text></g><!--class AlunoRequest--><g class="entity" data-entity="AlunoRequest" data-source-line="15" data-uid="ent0005" id="entity_AlunoRequest"><rect fill="#F1F1F1" height="129.4844" rx="2.5" ry="2.5" style="stroke:#181818;stroke-width:0.5;" width="217.5361" x="132.23" y="360.38"/><ellipse cx="188.1104" cy="376.38" fill="#ADD1B2" rx="11" ry="11" style="stroke:#181818;stroke-width:1;"/><path d="M191.0791,382.0206 Q190.501,382.3175 189.8604,382.4581 Q189.2197,382.6144 188.5166,382.6144 Q186.0166,382.6144 184.6885,380.9738 Q183.376,379.3175 183.376,376.1925 Q183.376,373.0675 184.6885,371.4113 Q186.0166,369.755 188.5166,369.755 Q189.2197,369.755 189.8604,369.9113 Q190.5166,370.0675 191.0791,370.3644 L191.0791,373.0831 Q190.4541,372.505 189.8604,372.2394 Q189.2666,371.9581 188.6416,371.9581 Q187.2979,371.9581 186.6104,373.0363 Q185.9229,374.0988 185.9229,376.1925 Q185.9229,378.2863 186.6104,379.3644 Q187.2979,380.4269 188.6416,380.4269 Q189.2666,380.4269 189.8604,380.1613 Q190.4541,379.88 191.0791,379.3019 L191.0791,382.0206 Z " fill="#000000"/><text fill="#000000" font-family="sans-serif" font-size="14" lengthAdjust="spacing" textLength="97.2754" x="208.6104" y="381.2267">AlunoRequest</text><line style="stroke:#181818;stroke-width:0.5;" x1="133.23" x2="348.7661" y1="392.38" y2="392.38"/><text fill="#000000" font-family="sans-serif" font-size="14" lengthAdjust="spacing" textLength="77.0137" x="138.23" y="409.3751">+ra: String</text><text fill="#000000" font-family="sans-serif" font-size="14" lengthAdjust="spacing" textLength="102.3682" x="138.23" y="425.672">+nome: String</text><text fill="#000000" font-family="sans-serif" font-size="14" lengthAdjust="spacing" textLength="101.2881" x="138.23" y="441.9689">+email: String</text><text fill="#000000" font-family="sans-serif" font-size="14" lengthAdjust="spacing" textLength="168.0068" x="138.23" y="458.2657">+departamentoId: Long</text><text fill="#000000" font-family="sans-serif" font-size="14" lengthAdjust="spacing" textLength="205.5361" x="138.23" y="474.5626">+dataNascimento: LocalDate</text><line style="stroke:#181818;stroke-width:0.5;" x1="133.23" x2="348.7661" y1="481.8644" y2="481.8644"/></g><!--class AlunoService--><g class="entity" data-entity="AlunoService" data-source-line="25" data-uid="ent0007" id="entity_AlunoService"><rect fill="#F1F1F1" height="129.4844" rx="2.5" ry="2.5" style="stroke:#181818;stroke-width:0.5;" width="338.0742" x="582.96" y="360.38"/><ellipse cx="701.9873" cy="376.38" fill="#B4A7E5" rx="11" ry="11" style="stroke:#181818;stroke-width:1;"/><path d="M697.9092,372.1456 L697.9092,369.9894 L705.2998,369.9894 L705.2998,372.1456 L702.8311,372.1456 L702.8311,380.2238 L705.2998,380.2238 L705.2998,382.38 L697.9092,382.38 L697.9092,380.2238 L700.378,380.2238 L700.378,372.1456 L697.9092,372.1456 Z " fill="#000000"/><text fill="#000000" font-family="sans-serif" font-size="14" font-style="italic" lengthAdjust="spacing" textLength="91.5195" x="722.4873" y="381.2267">AlunoService</text><line style="stroke:#181818;stroke-width:0.5;" x1="583.96" x2="920.0342" y1="392.38" y2="392.38"/><line style="stroke:#181818;stroke-width:0.5;" x1="583.96" x2="920.0342" y1="400.38" y2="400.38"/><text fill="#000000" font-family="sans-serif" font-size="14" lengthAdjust="spacing" textLength="173.8721" x="588.96" y="417.3751">+create(a: Aluno): Aluno</text><text fill="#000000" font-family="sans-serif" font-size="14" lengthAdjust="spacing" textLength="157.4521" x="588.96" y="433.672">+listAll(): List&lt;Aluno&gt;</text><text fill="#000000" font-family="sans-serif" font-size="14" lengthAdjust="spacing" textLength="267.8047" x="588.96" y="449.9689">+findById(id: Long): Optional&lt;Aluno&gt;</text><text fill="#000000" font-family="sans-serif" font-size="14" lengthAdjust="spacing" textLength="326.0742" x="588.96" y="466.2657">+update(id: Long, a: Aluno): Optional&lt;Aluno&gt;</text><text fill="#000000" font-family="sans-serif" font-size="14" lengthAdjust="spacing" textLength="187.9678" x="588.96" y="482.5626">+delete(id: Long): boolean</text></g><!--class AlunoServiceImpl--><g class="entity" data-entity="AlunoServiceImpl" data-source-line="33" data-uid="ent0008" id="entity_AlunoServiceImpl"><rect fill="#F1F1F1" height="80.5938" rx="2.5" ry="2.5" style="stroke:#181818;stroke-width:0.5;" width="520.1973" x="491.9" y="552.86"/><ellipse cx="686.7174" cy="568.86" fill="#ADD1B2" rx="11" ry="11" style="stroke:#181818;stroke-width:1;"/><path d="M689.6861,574.5006 Q689.108,574.7975 688.4674,574.9381 Q687.8268,575.0944 687.1236,575.0944 Q684.6236,575.0944 683.2955,573.4538 Q681.983,571.7975 681.983,568.6725 Q681.983,565.5475 683.2955,563.8913 Q684.6236,562.235 687.1236,562.235 Q687.8268,562.235 688.4674,562.3913 Q689.1236,562.5475 689.6861,562.8444 L689.6861,565.5631 Q689.0611,564.985 688.4674,564.7194 Q687.8736,564.4381 687.2486,564.4381 Q685.9049,564.4381 685.2174,565.5163 Q684.5299,566.5788 684.5299,568.6725 Q684.5299,570.7663 685.2174,571.8444 Q685.9049,572.9069 687.2486,572.9069 Q687.8736,572.9069 688.4674,572.6413 Q689.0611,572.36 689.6861,571.7819 L689.6861,574.5006 Z " fill="#000000"/><text fill="#000000" font-family="sans-serif" font-size="14" lengthAdjust="spacing" textLength="122.0625" x="707.2174" y="573.7067">AlunoServiceImpl</text><line style="stroke:#181818;stroke-width:0.5;" x1="492.9" x2="1011.0973" y1="584.86" y2="584.86"/><text fill="#000000" font-family="sans-serif" font-size="14" lengthAdjust="spacing" textLength="107.9531" x="497.9" y="601.8551">-dao: AlunoDao</text><line style="stroke:#181818;stroke-width:0.5;" x1="492.9" x2="1011.0973" y1="609.1569" y2="609.1569"/><text fill="#000000" font-family="sans-serif" font-size="14" lengthAdjust="spacing" textLength="508.1973" x="497.9" y="626.152">-translateUpsertException(ex: DataAccessException): RuntimeException</text></g><!--class AlunoDao--><g class="entity" data-entity="AlunoDao" data-source-line="40" data-uid="ent0011" id="entity_AlunoDao"><rect fill="#F1F1F1" height="129.4844" rx="2.5" ry="2.5" style="stroke:#181818;stroke-width:0.5;" width="279.8047" x="612.1" y="733.46"/><ellipse cx="713.9008" cy="749.46" fill="#B4A7E5" rx="11" ry="11" style="stroke:#181818;stroke-width:1;"/><path d="M709.8227,745.2256 L709.8227,743.0694 L717.2133,743.0694 L717.2133,745.2256 L714.7445,745.2256 L714.7445,753.3038 L717.2133,753.3038 L717.2133,755.46 L709.8227,755.46 L709.8227,753.3038 L712.2914,753.3038 L712.2914,745.2256 L709.8227,745.2256 Z " fill="#000000"/><text fill="#000000" font-family="sans-serif" font-size="14" font-style="italic" lengthAdjust="spacing" textLength="67.7031" x="734.4008" y="754.3067">AlunoDao</text><line style="stroke:#181818;stroke-width:0.5;" x1="613.1" x2="890.9047" y1="765.46" y2="765.46"/><line style="stroke:#181818;stroke-width:0.5;" x1="613.1" x2="890.9047" y1="773.46" y2="773.46"/><text fill="#000000" font-family="sans-serif" font-size="14" lengthAdjust="spacing" textLength="173.8721" x="618.1" y="790.4551">+create(a: Aluno): Aluno</text><text fill="#000000" font-family="sans-serif" font-size="14" lengthAdjust="spacing" textLength="267.8047" x="618.1" y="806.752">+findById(id: Long): Optional&lt;Aluno&gt;</text><text fill="#000000" font-family="sans-serif" font-size="14" lengthAdjust="spacing" textLength="163.4678" x="618.1" y="823.0489">+findAll(): List&lt;Aluno&gt;</text><text fill="#000000" font-family="sans-serif" font-size="14" lengthAdjust="spacing" textLength="261.1055" x="618.1" y="839.3457">+update(a: Aluno): Optional&lt;Aluno&gt;</text><text fill="#000000" font-family="sans-serif" font-size="14" lengthAdjust="spacing" textLength="187.9678" x="618.1" y="855.6426">+delete(id: Long): boolean</text></g><!--class AlunoDaoJdbc--><g class="entity" data-entity="AlunoDaoJdbc" data-source-line="48" data-uid="ent0012" id="entity_AlunoDaoJdbc"><rect fill="#F1F1F1" height="113.1875" rx="2.5" ry="2.5" style="stroke:#181818;stroke-width:0.5;" width="270.7061" x="616.65" y="923.94"/><ellipse cx="699.1017" cy="939.94" fill="#ADD1B2" rx="11" ry="11" style="stroke:#181818;stroke-width:1;"/><path d="M702.0704,945.5806 Q701.4923,945.8775 700.8517,946.0181 Q700.211,946.1744 699.5079,946.1744 Q697.0079,946.1744 695.6798,944.5338 Q694.3673,942.8775 694.3673,939.7525 Q694.3673,936.6275 695.6798,934.9713 Q697.0079,933.315 699.5079,933.315 Q700.211,933.315 700.8517,933.4713 Q701.5079,933.6275 702.0704,933.9244 L702.0704,936.6431 Q701.4454,936.065 700.8517,935.7994 Q700.2579,935.5181 699.6329,935.5181 Q698.2892,935.5181 697.6017,936.5963 Q696.9142,937.6588 696.9142,939.7525 Q696.9142,941.8463 697.6017,942.9244 Q698.2892,943.9869 699.6329,943.9869 Q700.2579,943.9869 700.8517,943.7213 Q701.4454,943.44 702.0704,942.8619 L702.0704,945.5806 Z " fill="#000000"/><text fill="#000000" font-family="sans-serif" font-size="14" lengthAdjust="spacing" textLength="97.3027" x="719.6017" y="944.7867">AlunoDaoJdbc</text><line style="stroke:#181818;stroke-width:0.5;" x1="617.65" x2="886.3561" y1="955.94" y2="955.94"/><text fill="#000000" font-family="sans-serif" font-size="14" lengthAdjust="spacing" textLength="139.4395" x="622.65" y="972.9351">-jdbc: JdbcTemplate</text><text fill="#000000" font-family="sans-serif" font-size="14" lengthAdjust="spacing" textLength="258.7061" x="622.65" y="989.232">-ROW_MAPPER: RowMapper&lt;Aluno&gt;</text><text fill="#000000" font-family="sans-serif" font-size="14" lengthAdjust="spacing" textLength="126.2803" x="622.65" y="1005.5289">-COLUMNS: String</text><line style="stroke:#181818;stroke-width:0.5;" x1="617.65" x2="886.3561" y1="1012.8306" y2="1012.8306"/><text fill="#000000" font-family="sans-serif" font-size="14" lengthAdjust="spacing" textLength="238.4785" x="622.65" y="1029.8257">-toSqlDate(data: LocalDate): Date</text></g><!--class Aluno--><g class="entity" data-entity="Aluno" data-source-line="57" data-uid="ent0015" id="entity_Aluno"><rect fill="#F1F1F1" height="178.375" rx="2.5" ry="2.5" style="stroke:#181818;stroke-width:0.5;" width="217.5361" x="1068.23" y="84"/><ellipse cx="1152.8589" cy="100" fill="#ADD1B2" rx="11" ry="11" style="stroke:#181818;stroke-width:1;"/><path d="M1155.8277,105.6406 Q1155.2495,105.9375 1154.6089,106.0781 Q1153.9683,106.2344 1153.2652,106.2344 Q1150.7652,106.2344 1149.437,104.5938 Q1148.1245,102.9375 1148.1245,99.8125 Q1148.1245,96.6875 1149.437,95.0313 Q1150.7652,93.375 1153.2652,93.375 Q1153.9683,93.375 1154.6089,93.5313 Q1155.2652,93.6875 1155.8277,93.9844 L1155.8277,96.7031 Q1155.2027,96.125 1154.6089,95.8594 Q1154.0152,95.5781 1153.3902,95.5781 Q1152.0464,95.5781 1151.3589,96.6563 Q1150.6714,97.7188 1150.6714,99.8125 Q1150.6714,101.9063 1151.3589,102.9844 Q1152.0464,104.0469 1153.3902,104.0469 Q1154.0152,104.0469 1154.6089,103.7813 Q1155.2027,103.5 1155.8277,102.9219 L1155.8277,105.6406 Z " fill="#000000"/><text fill="#000000" font-family="sans-serif" font-size="14" lengthAdjust="spacing" textLength="39.7783" x="1173.3589" y="104.8467">Aluno</text><line style="stroke:#181818;stroke-width:0.5;" x1="1069.23" x2="1284.7661" y1="116" y2="116"/><text fill="#000000" font-family="sans-serif" font-size="14" lengthAdjust="spacing" textLength="67.7988" x="1074.23" y="132.9951">+id: Long</text><text fill="#000000" font-family="sans-serif" font-size="14" lengthAdjust="spacing" textLength="77.0137" x="1074.23" y="149.292">+ra: String</text><text fill="#000000" font-family="sans-serif" font-size="14" lengthAdjust="spacing" textLength="102.3682" x="1074.23" y="165.5889">+nome: String</text><text fill="#000000" font-family="sans-serif" font-size="14" lengthAdjust="spacing" textLength="101.2881" x="1074.23" y="181.8857">+email: String</text><text fill="#000000" font-family="sans-serif" font-size="14" lengthAdjust="spacing" textLength="168.0068" x="1074.23" y="198.1826">+departamentoId: Long</text><text fill="#000000" font-family="sans-serif" font-size="14" lengthAdjust="spacing" textLength="205.5361" x="1074.23" y="214.4795">+dataNascimento: LocalDate</text><text fill="#000000" font-family="sans-serif" font-size="14" lengthAdjust="spacing" textLength="138.3252" x="1074.23" y="230.7764">+createdAt: Instant</text><text fill="#000000" font-family="sans-serif" font-size="14" lengthAdjust="spacing" textLength="142.9053" x="1074.23" y="247.0732">+updatedAt: Instant</text><line style="stroke:#181818;stroke-width:0.5;" x1="1069.23" x2="1284.7661" y1="254.375" y2="254.375"/></g><!--class Departamento--><g class="entity" data-entity="Departamento" data-source-line="68" data-uid="ent0016" id="entity_Departamento"><rect fill="#F1F1F1" height="129.4844" rx="2.5" ry="2.5" style="stroke:#181818;stroke-width:0.5;" width="154.9053" x="1067.55" y="360.38"/><ellipse cx="1092.0193" cy="376.38" fill="#ADD1B2" rx="11" ry="11" style="stroke:#181818;stroke-width:1;"/><path d="M1094.9881,382.0206 Q1094.41,382.3175 1093.7693,382.4581 Q1093.1287,382.6144 1092.4256,382.6144 Q1089.9256,382.6144 1088.5975,380.9738 Q1087.285,379.3175 1087.285,376.1925 Q1087.285,373.0675 1088.5975,371.4113 Q1089.9256,369.755 1092.4256,369.755 Q1093.1287,369.755 1093.7693,369.9113 Q1094.4256,370.0675 1094.9881,370.3644 L1094.9881,373.0831 Q1094.3631,372.505 1093.7693,372.2394 Q1093.1756,371.9581 1092.5506,371.9581 Q1091.2068,371.9581 1090.5193,373.0363 Q1089.8318,374.0988 1089.8318,376.1925 Q1089.8318,378.2863 1090.5193,379.3644 Q1091.2068,380.4269 1092.5506,380.4269 Q1093.1756,380.4269 1093.7693,380.1613 Q1094.3631,379.88 1094.9881,379.3019 L1094.9881,382.0206 Z " fill="#000000"/><text fill="#000000" font-family="sans-serif" font-size="14" lengthAdjust="spacing" textLength="101.8623" x="1108.1236" y="381.2267">Departamento</text><line style="stroke:#181818;stroke-width:0.5;" x1="1068.55" x2="1221.4553" y1="392.38" y2="392.38"/><text fill="#000000" font-family="sans-serif" font-size="14" lengthAdjust="spacing" textLength="67.7988" x="1073.55" y="409.3751">+id: Long</text><text fill="#000000" font-family="sans-serif" font-size="14" lengthAdjust="spacing" textLength="102.3682" x="1073.55" y="425.672">+nome: String</text><text fill="#000000" font-family="sans-serif" font-size="14" lengthAdjust="spacing" textLength="95.2178" x="1073.55" y="441.9689">+sigla: String</text><text fill="#000000" font-family="sans-serif" font-size="14" lengthAdjust="spacing" textLength="138.3252" x="1073.55" y="458.2657">+createdAt: Instant</text><text fill="#000000" font-family="sans-serif" font-size="14" lengthAdjust="spacing" textLength="142.9053" x="1073.55" y="474.5626">+updatedAt: Instant</text><line style="stroke:#181818;stroke-width:0.5;" x1="1068.55" x2="1221.4553" y1="481.8644" y2="481.8644"/></g><!--class JdbcTemplate--><g class="entity" data-entity="JdbcTemplate" data-source-line="82" data-uid="ent0022" id="entity_JdbcTemplate"><rect fill="#F1F1F1" height="48" rx="2.5" ry="2.5" style="stroke:#181818;stroke-width:0.5;" width="127.8604" x="688.07" y="1140.13"/><ellipse cx="703.07" cy="1156.13" fill="#ADD1B2" rx="11" ry="11" style="stroke:#181818;stroke-width:1;"/><path d="M706.0388,1161.7706 Q705.4606,1162.0675 704.82,1162.2081 Q704.1794,1162.3644 703.4763,1162.3644 Q700.9763,1162.3644 699.6481,1160.7238 Q698.3356,1159.0675 698.3356,1155.9425 Q698.3356,1152.8175 699.6481,1151.1613 Q700.9763,1149.505 703.4763,1149.505 Q704.1794,1149.505 704.82,1149.6613 Q705.4763,1149.8175 706.0388,1150.1144 L706.0388,1152.8331 Q705.4138,1152.255 704.82,1151.9894 Q704.2263,1151.7081 703.6013,1151.7081 Q702.2575,1151.7081 701.57,1152.7863 Q700.8825,1153.8488 700.8825,1155.9425 Q700.8825,1158.0363 701.57,1159.1144 Q702.2575,1160.1769 703.6013,1160.1769 Q704.2263,1160.1769 704.82,1159.9113 Q705.4138,1159.63 706.0388,1159.0519 L706.0388,1161.7706 Z " fill="#000000"/><text fill="#000000" font-family="sans-serif" font-size="14" lengthAdjust="spacing" textLength="95.8604" x="717.07" y="1160.9767">JdbcTemplate</text><line style="stroke:#181818;stroke-width:0.5;" x1="689.07" x2="814.9304" y1="1172.13" y2="1172.13"/><line style="stroke:#181818;stroke-width:0.5;" x1="689.07" x2="814.9304" y1="1180.13" y2="1180.13"/></g><!--reverse link AlunoService to AlunoServiceImpl--><g class="link" data-entity-1="AlunoService" data-entity-2="AlunoServiceImpl" data-source-line="34" data-uid="lnk9" id="link_AlunoService_AlunoServiceImpl"><path d="M738.5886,508.3103 C737.8986,529.3003 738.97,533.99 740.63,552.61" fill="none" id="AlunoService-backto-AlunoServiceImpl" style="stroke:#181818;stroke-width:1;stroke-dasharray:7,7;"/><polygon fill="none" points="739.18,490.32,732.5918,508.1132,744.5854,508.5074,739.18,490.32" style="stroke:#181818;stroke-width:1;"/></g><!--link AlunoServiceImpl to AlunoService--><g class="link" data-entity-1="AlunoServiceImpl" data-entity-2="AlunoService" data-source-line="79" data-uid="lnk19" id="link_AlunoServiceImpl_AlunoService"><path codeLine="79" d="M763.37,552.61 C765.03,533.99 766.1014,529.3003 765.4114,508.3103" fill="none" id="AlunoServiceImpl-to-AlunoService" style="stroke:#181818;stroke-width:1;stroke-dasharray:7,7;"/><polygon fill="none" points="764.82,490.32,759.4146,508.5074,771.4082,508.1132,764.82,490.32" style="stroke:#181818;stroke-width:1;"/></g><!--reverse link AlunoDao to AlunoDaoJdbc--><g class="link" data-entity-1="AlunoDao" data-entity-2="AlunoDaoJdbc" data-source-line="49" data-uid="lnk13" id="link_AlunoDao_AlunoDaoJdbc"><path d="M738.6693,881.276 C737.8893,901.016 738.73,904.6 739.76,923.73" fill="none" id="AlunoDao-backto-AlunoDaoJdbc" style="stroke:#181818;stroke-width:1;stroke-dasharray:7,7;"/><polygon fill="none" points="739.38,863.29,732.674,881.0391,744.6646,881.5129,739.38,863.29" style="stroke:#181818;stroke-width:1;"/></g><!--link AlunoDaoJdbc to AlunoDao--><g class="link" data-entity-1="AlunoDaoJdbc" data-entity-2="AlunoDao" data-source-line="81" data-uid="lnk21" id="link_AlunoDaoJdbc_AlunoDao"><path codeLine="81" d="M764.24,923.73 C765.27,904.6 766.1107,901.016 765.3307,881.276" fill="none" id="AlunoDaoJdbc-to-AlunoDao" style="stroke:#181818;stroke-width:1;stroke-dasharray:7,7;"/><polygon fill="none" points="764.62,863.29,759.3354,881.5129,771.326,881.0391,764.62,863.29" style="stroke:#181818;stroke-width:1;"/></g><!--link AlunoController to AlunoService--><g class="link" data-entity-1="AlunoController" data-entity-2="AlunoService" data-source-line="77" data-uid="lnk17" id="link_AlunoController_AlunoService"><path codeLine="77" d="M422.24,262.84 C487.82,294.91 555.1503,327.8436 615.5803,357.4036" fill="none" id="AlunoController-to-AlunoService" style="stroke:#181818;stroke-width:1;"/><polygon fill="#181818" points="620.97,360.04,614.643,352.4922,616.4786,357.843,611.1278,359.6785,620.97,360.04" style="stroke:#181818;stroke-width:1;"/><text fill="#000000" font-family="sans-serif" font-size="13" lengthAdjust="spacing" textLength="22.9785" x="512.82" y="305.4469">usa</text></g><!--link AlunoController to AlunoRequest--><g class="link" data-entity-1="AlunoController" data-entity-2="AlunoRequest" data-source-line="78" data-uid="lnk18" id="link_AlunoController_AlunoRequest"><path codeLine="78" d="M241,262.66 C241,294.82 241,324.51 241,354.14" fill="none" id="AlunoController-to-AlunoRequest" style="stroke:#181818;stroke-width:1;"/><polygon fill="#181818" points="241,360.14,245,351.14,241,355.14,237,351.14,241,360.14" style="stroke:#181818;stroke-width:1;"/><text fill="#000000" font-family="sans-serif" font-size="13" lengthAdjust="spacing" textLength="22.9785" x="242" y="305.4469">usa</text></g><!--link AlunoServiceImpl to AlunoDao--><g class="link" data-entity-1="AlunoServiceImpl" data-entity-2="AlunoDao" data-source-line="80" data-uid="lnk20" id="link_AlunoServiceImpl_AlunoDao"><path codeLine="80" d="M752,633.79 C752,662.07 752,694.7 752,727.3" fill="none" id="AlunoServiceImpl-to-AlunoDao" style="stroke:#181818;stroke-width:1;"/><polygon fill="#181818" points="752,733.3,756,724.3,752,728.3,748,724.3,752,733.3" style="stroke:#181818;stroke-width:1;"/><text fill="#000000" font-family="sans-serif" font-size="13" lengthAdjust="spacing" textLength="22.9785" x="753" y="678.5269">usa</text></g><!--link AlunoDaoJdbc to JdbcTemplate--><g class="link" data-entity-1="AlunoDaoJdbc" data-entity-2="JdbcTemplate" data-source-line="82" data-uid="lnk23" id="link_AlunoDaoJdbc_JdbcTemplate"><path codeLine="82" d="M752,1037.5 C752,1071.89 752,1108.14 752,1133.83" fill="none" id="AlunoDaoJdbc-to-JdbcTemplate" style="stroke:#181818;stroke-width:1;"/><polygon fill="#181818" points="752,1139.83,756,1130.83,752,1134.83,748,1130.83,752,1139.83" style="stroke:#181818;stroke-width:1;"/><text fill="#000000" font-family="sans-serif" font-size="13" lengthAdjust="spacing" textLength="51.9683" x="753" y="1106.1969">comp&#245;e</text></g><!--link Aluno to Departamento--><g class="link" data-entity-1="Aluno" data-entity-2="Departamento" data-source-line="83" data-uid="lnk24" id="link_Aluno_Departamento"><path codeLine="83" d="M1165.67,262.66 C1161.56,294.82 1157.7532,324.5587 1153.9532,354.1887" fill="none" id="Aluno-to-Departamento" style="stroke:#181818;stroke-width:1;"/><polygon fill="#181818" points="1153.19,360.14,1158.3024,351.7219,1153.826,355.1806,1150.3674,350.7043,1153.19,360.14" style="stroke:#181818;stroke-width:1;"/><text fill="#000000" font-family="sans-serif" font-size="13" lengthAdjust="spacing" textLength="154.8257" x="1162" y="305.4469">N:1 via departamentoId</text></g><!--SRC=[lLLTRzCm57tlhx3ob6gaWjS8JGfh7uhMRcePFA9RvwuoS-miTiO6x6Vn2_XZt2HEPpSP6XBYfMryZk_7EVUcvaQe4Yee69TWJ6Pj9NQrnINNQYk-8NizcPJ0Rs2FB2grdj6vhRIKM4Ni-uHrrrWcQwNF3b2BC9OOhEu4nxJ3jzrJ2vtm2i5Yd5ljq0tUrcZiD6KRDALM1XVA2llmjaLFkrjI61iJvPo-0s2FDXOv0LhjfovYXzHbtYJgmLTiBAN7pr6Ynn_Myr6BlCkQMDrUZFySCb6wAa2Icei2X8on-KpPbgHkutS_YFeu2GLrmPoQ9nLuN7fMki3m98ZSjqFsMYXGMRrqFJa4BAp1SD5Y3S91pachjfB78z-TbPtfGbcihe5ZO6nVfxCMd0QXl8s3cPIZ9buBbRzxMEQ- -1Ub5Lg138W3JxrSenU6fkwqbWXgH7NNpR8e9HFqWOq-PgpJ98VUzpauhsq5oaYgxgeaoUpYdcDRK8ptAIDr8UCSZJcSD_DLqs0LU3WQrPzIZMfFYL-a-ukrROZF6UHq_vTgK_tlynqVAFtKL_A5y9Grh0z8h6v2wNnpyUdpAhkyN6n8G_rr1MM9bLz8SdPnVhLQRuEDeANTthPp7ZSRuCtzj3LeVFmBJKqDtdYzyY9OhF-ufmVNyyocRAcC1MLzhuxEFVNdNiBnFePr6x6NHytzPNeguFY_8abEm-LAMMtWULh_LlHe_ihEPZ_2U4FA8LGpP5wOVXQVGZHh7K3DrSWVnOW2S5sKltwwH2qb43TbqJfzm-u4iD3bQF8R]--></g></svg>