<svg xmlns="http://www.w3.org/2000/svg" xmlns:xlink="http://www.w3.org/1999/xlink" contentStyleType="text/css" data-diagram-type="SEQUENCE" height="499px" preserveAspectRatio="none" style="width:1039px;height:499px;background:#FFFFFF;" version="1.1" viewBox="0 0 1039 499" width="1039px" zoomAndPan="magnify"><defs/><g><g><title>Usuario</title><rect fill="#000000" fill-opacity="0.00000" height="337.3281" width="8" x="30.6021" y="81.2969"/><line style="stroke:#181818;stroke-width:0.5;stroke-dasharray:5,5;" x1="34" x2="34" y1="81.2969" y2="418.625"/></g><g><title>AlunoController</title><rect fill="#000000" fill-opacity="0.00000" height="337.3281" width="8" x="418.1641" y="81.2969"/><line style="stroke:#181818;stroke-width:0.5;stroke-dasharray:5,5;" x1="421.6885" x2="421.6885" y1="81.2969" y2="418.625"/></g><g><title>AlunoService</title><rect fill="#000000" fill-opacity="0.00000" height="337.3281" width="8" x="562.6362" y="81.2969"/><line style="stroke:#181818;stroke-width:0.5;stroke-dasharray:5,5;" x1="565.8765" x2="565.8765" y1="81.2969" y2="418.625"/></g><g><title>AlunoDao</title><rect fill="#000000" fill-opacity="0.00000" height="337.3281" width="8" x="675.2686" y="81.2969"/><line style="stroke:#181818;stroke-width:0.5;stroke-dasharray:5,5;" x1="678.417" x2="678.417" y1="81.2969" y2="418.625"/></g><g><title>PostgreSQL</title><rect fill="#000000" fill-opacity="0.00000" height="337.3281" width="8" x="991.4893" y="81.2969"/><line style="stroke:#181818;stroke-width:0.5;stroke-dasharray:5,5;" x1="995.1128" x2="995.1128" y1="81.2969" y2="418.625"/></g><g class="participant participant-head" data-participant="U"><text fill="#000000" font-family="sans-serif" font-size="14" lengthAdjust="spacing" textLength="53.2041" x="5" y="77.9951">Usuario</text><ellipse cx="34.6021" cy="13.5" fill="#E2E2F0" rx="8" ry="8" style="stroke:#181818;stroke-width:0.5;"/><path d="M34.6021,21.5 L34.6021,48.5 M21.6021,29.5 L47.6021,29.5 M34.6021,48.5 L21.6021,63.5 M34.6021,48.5 L47.6021,63.5" fill="none" style="stroke:#181818;stroke-width:0.5;"/></g><g class="participant participant-tail" data-participant="U"><text fill="#000000" font-family="sans-serif" font-size="14" lengthAdjust="spacing" textLength="53.2041" x="5" y="430.6201">Usuario</text><ellipse cx="34.6021" cy="442.4219" fill="#E2E2F0" rx="8" ry="8" style="stroke:#181818;stroke-width:0.5;"/><path d="M34.6021,450.4219 L34.6021,477.4219 M21.6021,458.4219 L47.6021,458.4219 M34.6021,477.4219 L21.6021,492.4219 M34.6021,477.4219 L47.6021,492.4219" fill="none" style="stroke:#181818;stroke-width:0.5;"/></g><g class="participant participant-head" data-participant="C"><rect fill="#E2E2F0" height="30.2969" rx="2.5" ry="2.5" style="stroke:#181818;stroke-width:0.5;" width="122.9512" x="360.6885" y="50"/><text fill="#000000" font-family="sans-serif" font-size="14" lengthAdjust="spacing" textLength="108.9512" x="367.6885" y="69.9951">AlunoController</text></g><g class="participant participant-tail" data-participant="C"><rect fill="#E2E2F0" height="30.2969" rx="2.5" ry="2.5" style="stroke:#181818;stroke-width:0.5;" width="122.9512" x="360.6885" y="417.625"/><text fill="#000000" font-family="sans-serif" font-size="14" lengthAdjust="spacing" textLength="108.9512" x="367.6885" y="437.6201">AlunoController</text></g><g class="participant participant-head" data-participant="S"><rect fill="#E2E2F0" height="30.2969" rx="2.5" ry="2.5" style="stroke:#181818;stroke-width:0.5;" width="105.5195" x="513.8765" y="50"/><text fill="#000000" font-family="sans-serif" font-size="14" lengthAdjust="spacing" textLength="91.5195" x="520.8765" y="69.9951">AlunoService</text></g><g class="participant participant-tail" data-participant="S"><rect fill="#E2E2F0" height="30.2969" rx="2.5" ry="2.5" style="stroke:#181818;stroke-width:0.5;" width="105.5195" x="513.8765" y="417.625"/><text fill="#000000" font-family="sans-serif" font-size="14" lengthAdjust="spacing" textLength="91.5195" x="520.8765" y="437.6201">AlunoService</text></g><g class="participant participant-head" data-participant="D"><rect fill="#E2E2F0" height="30.2969" rx="2.5" ry="2.5" style="stroke:#181818;stroke-width:0.5;" width="81.7031" x="638.417" y="50"/><text fill="#000000" font-family="sans-serif" font-size="14" lengthAdjust="spacing" textLength="67.7031" x="645.417" y="69.9951">AlunoDao</text></g><g class="participant participant-tail" data-participant="D"><rect fill="#E2E2F0" height="30.2969" rx="2.5" ry="2.5" style="stroke:#181818;stroke-width:0.5;" width="81.7031" x="638.417" y="417.625"/><text fill="#000000" font-family="sans-serif" font-size="14" lengthAdjust="spacing" textLength="67.7031" x="645.417" y="437.6201">AlunoDao</text></g><g class="participant participant-head" data-participant="DB"><text fill="#000000" font-family="sans-serif" font-size="14" lengthAdjust="spacing" textLength="80.7529" x="952.1128" y="77.9951">PostgreSQL</text><path d="M977.4893,29 C977.4893,19 995.4893,19 995.4893,19 C995.4893,19 1013.4893,19 1013.4893,29 L1013.4893,55 C1013.4893,65 995.4893,65 995.4893,65 C995.4893,65 977.4893,65 977.4893,55 L977.4893,29" fill="#E2E2F0" style="stroke:#181818;stroke-width:0.5;"/><path d="M977.4893,29 C977.4893,39 995.4893,39 995.4893,39 C995.4893,39 1013.4893,39 1013.4893,29" fill="none" style="stroke:#181818;stroke-width:0.5;"/></g><g class="participant participant-tail" data-participant="DB"><text fill="#000000" font-family="sans-serif" font-size="14" lengthAdjust="spacing" textLength="80.7529" x="952.1128" y="430.6201">PostgreSQL</text><path d="M977.4893,443.9219 C977.4893,433.9219 995.4893,433.9219 995.4893,433.9219 C995.4893,433.9219 1013.4893,433.9219 1013.4893,443.9219 L1013.4893,469.9219 C1013.4893,479.9219 995.4893,479.9219 995.4893,479.9219 C995.4893,479.9219 977.4893,479.9219 977.4893,469.9219 L977.4893,443.9219" fill="#E2E2F0" style="stroke:#181818;stroke-width:0.5;"/><path d="M977.4893,443.9219 C977.4893,453.9219 995.4893,453.9219 995.4893,453.9219 C995.4893,453.9219 1013.4893,453.9219 1013.4893,443.9219" fill="none" style="stroke:#181818;stroke-width:0.5;"/></g><g class="message" data-participant-1="U" data-participant-2="C"><polygon fill="#181818" points="410.1641,108.4297,420.1641,112.4297,410.1641,116.4297,414.1641,112.4297" style="stroke:#181818;stroke-width:1;"/><line style="stroke:#181818;stroke-width:1;" x1="34.6021" x2="416.1641" y1="112.4297" y2="112.4297"/><text fill="#000000" font-family="sans-serif" font-size="13" lengthAdjust="spacing" textLength="214.373" x="41.6021" y="107.3638">POST /api/alunos (AlunoRequest)</text></g><g class="message" data-participant-1="C" data-participant-2="C"><line style="stroke:#181818;stroke-width:1;" x1="422.1641" x2="464.1641" y1="141.5625" y2="141.5625"/><line style="stroke:#181818;stroke-width:1;" x1="464.1641" x2="464.1641" y1="141.5625" y2="154.5625"/><line style="stroke:#181818;stroke-width:1;" x1="423.1641" x2="464.1641" y1="154.5625" y2="154.5625"/><polygon fill="#181818" points="433.1641,150.5625,423.1641,154.5625,433.1641,158.5625,429.1641,154.5625" style="stroke:#181818;stroke-width:1;"/><text fill="#000000" font-family="sans-serif" font-size="13" lengthAdjust="spacing" textLength="81.4341" x="429.1641" y="136.4966">toAluno(dto)</text></g><g class="message" data-participant-1="C" data-participant-2="S"><polygon fill="#181818" points="554.6362,179.6953,564.6362,183.6953,554.6362,187.6953,558.6362,183.6953" style="stroke:#181818;stroke-width:1;"/><line style="stroke:#181818;stroke-width:1;" x1="422.1641" x2="560.6362" y1="183.6953" y2="183.6953"/><text fill="#000000" font-family="sans-serif" font-size="13" lengthAdjust="spacing" textLength="120.4722" x="429.1641" y="178.6294">create(novoAluno)</text></g><g class="message" data-participant-1="S" data-participant-2="D"><polygon fill="#181818" points="667.2686,208.8281,677.2686,212.8281,667.2686,216.8281,671.2686,212.8281" style="stroke:#181818;stroke-width:1;"/><line style="stroke:#181818;stroke-width:1;" x1="566.6362" x2="673.2686" y1="212.8281" y2="212.8281"/><text fill="#000000" font-family="sans-serif" font-size="13" lengthAdjust="spacing" textLength="88.6323" x="573.6362" y="207.7622">create(Aluno)</text></g><g class="message" data-participant-1="D" data-participant-2="DB"><polygon fill="#181818" points="983.4893,237.9609,993.4893,241.9609,983.4893,245.9609,987.4893,241.9609" style="stroke:#181818;stroke-width:1;"/><line style="stroke:#181818;stroke-width:1;" x1="679.2686" x2="989.4893" y1="241.9609" y2="241.9609"/><text fill="#000000" font-family="sans-serif" font-size="13" lengthAdjust="spacing" textLength="292.2207" x="686.2686" y="236.895">INSERT ... RETURNING id, ra, nome, email, ...</text></g><g class="message" data-participant-1="DB" data-participant-2="D"><polygon fill="#181818" points="690.2686,267.0938,680.2686,271.0938,690.2686,275.0938,686.2686,271.0938" style="stroke:#181818;stroke-width:1;"/><line style="stroke:#181818;stroke-width:1;stroke-dasharray:2,2;" x1="684.2686" x2="994.4893" y1="271.0938" y2="271.0938"/><text fill="#000000" font-family="sans-serif" font-size="13" lengthAdjust="spacing" textLength="104.7363" x="696.2686" y="266.0278">Aluno persistido</text></g><g class="message" data-participant-1="D" data-participant-2="S"><polygon fill="#181818" points="577.6362,296.2266,567.6362,300.2266,577.6362,304.2266,573.6362,300.2266" style="stroke:#181818;stroke-width:1;"/><line style="stroke:#181818;stroke-width:1;stroke-dasharray:2,2;" x1="571.6362" x2="678.2686" y1="300.2266" y2="300.2266"/><text fill="#000000" font-family="sans-serif" font-size="13" lengthAdjust="spacing" textLength="36.937" x="583.6362" y="295.1606">Aluno</text></g><g class="message" data-participant-1="S" data-participant-2="C"><polygon fill="#181818" points="433.1641,325.3594,423.1641,329.3594,433.1641,333.3594,429.1641,329.3594" style="stroke:#181818;stroke-width:1;"/><line style="stroke:#181818;stroke-width:1;stroke-dasharray:2,2;" x1="427.1641" x2="565.6362" y1="329.3594" y2="329.3594"/><text fill="#000000" font-family="sans-serif" font-size="13" lengthAdjust="spacing" textLength="36.937" x="439.1641" y="324.2935">Aluno</text></g><g class="message" data-participant-1="C" data-participant-2="C"><line style="stroke:#181818;stroke-width:1;" x1="422.1641" x2="464.1641" y1="358.4922" y2="358.4922"/><line style="stroke:#181818;stroke-width:1;" x1="464.1641" x2="464.1641" y1="358.4922" y2="371.4922"/><line style="stroke:#181818;stroke-width:1;" x1="423.1641" x2="464.1641" y1="371.4922" y2="371.4922"/><polygon fill="#181818" points="433.1641,367.4922,423.1641,371.4922,433.1641,375.4922,429.1641,371.4922" style="stroke:#181818;stroke-width:1;"/><text fill="#000000" font-family="sans-serif" font-size="13" lengthAdjust="spacing" textLength="117.0952" x="429.1641" y="353.4263">construir Location</text></g><g class="message" data-participant-1="C" data-participant-2="U"><polygon fill="#181818" points="45.6021,396.625,35.6021,400.625,45.6021,404.625,41.6021,400.625" style="stroke:#181818;stroke-width:1;"/><line style="stroke:#181818;stroke-width:1;stroke-dasharray:2,2;" x1="39.6021" x2="421.1641" y1="400.625" y2="400.625"/><text fill="#000000" font-family="sans-serif" font-size="13" lengthAdjust="spacing" textLength="363.562" x="51.6021" y="395.5591">ResponseEntity 201 Created (Location /api/alunos/{id})</text></g><!--SRC=[RP11IyD048Nl-ok6db98M_NeGR19aKAfDTlyW34PP23TYRkJWeZ_tUmsLGyUvtrltZm66nKFTHZGim06g4sFNhdX7ft2xB4Rd1JYr4lNaPz5I_6FnP8_SqE9stzuYP9OQLfKVCL0C3j8q3TFzcLtGMjZQbWyG07tS7YsHrXXpokCwm6o55FH-q11vwQu6bKIo5gLIRMZsdX2fSp9-OBdnaPK_g99BfEy7lNjtcwg8ooNIwWsnxhQR_TFm6qE7dDmSg8Sw8JSvT5YnfN559YIe2SVE2Yt4ZEd6Wd5qrFPo_pJlH4Nr0_iOISDAekBR8Jr22iA_SXfuvJr0-vkRg58rLl8hlQ_7rfzSlir_mO0]--></g></svg>